# xmcd
#
# Track frame offsets:
# 150
# 16277
# 37865
# 53917
# 71660
# 89207
# 105785
# 126655
# 144222
# 166007
# 181410
# 198817
# 216250
# 237407
# 254537
# 271330
#
# Disc length: 3884 seconds
#
#
# Revision: 2
# Processed by: cddbd v1.4PL0 Copyright (c) Steve Scherf et al.
# Submitted via: FreeRIP 2.30 
#
DISCID=e10f2a10
DTITLE=祥隴賸 - 祥隴賸
DYEAR=1900
DGENRE=Vocal
TTITLE0=大家好
TTITLE1=新好男孩
TTITLE2=生命
TTITLE3=是是非非
TTITLE4=超越自我
TTITLE5=你想要的
TTITLE6=愛的話題
TTITLE7=我回來了
TTITLE8=紀念
TTITLE9=紳士
TTITLE10=菴 11 秞寢
TTITLE11=菴 12 秞寢
TTITLE12=菴 13 秞寢
TTITLE13=菴 14 秞寢
TTITLE14=菴 15 秞寢
TTITLE15=菴 16 秞寢
EXTD=
EXTT0=
EXTT1=
EXTT2=
EXTT3=
EXTT4=
EXTT5=
EXTT6=
EXTT7=
EXTT8=
EXTT9=
EXTT10=
EXTT11=
EXTT12=
EXTT13=
EXTT14=
EXTT15=
PLAYORDER=
